# Blender v2.76 (sub 0) OBJ File: 'lamp.blend'
# www.blender.org
mtllib lamp.mtl
o Cube.001_Cube.003
v 1.136722 4.351340 0.107018
v 1.121799 4.469398 0.107018
v 1.136722 4.351340 -0.107242
v 1.121799 4.469398 -0.107242
v 1.407946 4.397738 0.107018
v 1.393023 4.515797 0.107018
v 1.407946 4.397738 -0.107242
v 1.393023 4.515797 -0.107242
v 1.524411 4.393958 0.081943
v 1.510794 4.501687 0.081943
v 1.524411 4.393958 -0.083096
v 1.510794 4.501687 -0.083096
v 1.023957 4.301050 0.082278
v 1.009034 4.419109 0.082278
v 1.023957 4.301050 -0.083171
v 1.009034 4.419109 -0.083171
v 1.162831 4.353191 0.086533
v 1.162831 4.353191 -0.086757
v 1.382191 4.390718 0.086533
v 1.382191 4.390718 -0.086757
v 1.476386 4.387660 0.061458
v 1.476386 4.387660 -0.062611
v 1.071628 4.312518 0.061792
v 1.071628 4.312518 -0.062685
v 1.157631 4.392402 0.086533
v 1.157631 4.392402 -0.086757
v 1.376991 4.429928 0.086533
v 1.376991 4.429928 -0.086757
v 1.471186 4.426870 0.061458
v 1.471186 4.426870 -0.062611
v 1.066428 4.351729 0.061792
v 1.066428 4.351729 -0.062685
v 1.196787 4.395179 -0.056104
v 1.196787 4.395179 0.055739
v 1.338365 4.419398 -0.056104
v 1.338365 4.419398 0.055739
v 1.399159 4.417425 0.039555
v 1.399159 4.417425 -0.040520
v 1.137924 4.368928 -0.040568
v 1.137924 4.368928 0.039771
v 1.202974 4.353740 -0.056104
v 1.202974 4.353740 0.055739
v 1.344552 4.377959 -0.056104
v 1.344552 4.377959 0.055739
v 1.402264 4.395508 0.039555
v 1.402264 4.395508 -0.040520
v 1.141028 4.347011 -0.040568
v 1.141028 4.347011 0.039771
v 0.000000 1.434638 -0.050000
v 0.000000 3.134092 -0.050000
v 0.035355 1.434638 -0.035355
v 0.032957 3.121292 -0.035355
v 0.050000 1.434638 0.000000
v 0.046608 3.115990 -0.000000
v 0.035355 1.434638 0.035355
v 0.032957 3.121292 0.035355
v 0.000000 1.434638 0.050000
v 0.000000 3.134092 0.050000
v -0.035355 1.434638 0.035355
v -0.032957 3.146892 0.035355
v -0.050000 1.434638 -0.000000
v -0.046608 3.152194 0.000000
v -0.035355 1.434638 -0.035355
v -0.032957 3.146892 -0.035355
v 0.000000 1.243556 -0.082871
v 0.058554 1.243556 -0.058599
v 0.082809 1.243555 0.000000
v 0.058554 1.243556 0.058599
v 0.000000 1.243556 0.082871
v -0.058554 1.243556 0.058599
v -0.082808 1.243555 -0.000000
v -0.058554 1.243556 -0.058599
v -0.000002 -0.007798 -0.082871
v 0.058553 -0.007799 -0.058599
v 0.082807 -0.007799 0.000000
v 0.058553 -0.007799 0.058599
v -0.000002 -0.007798 0.082871
v -0.058556 -0.007798 0.058599
v -0.082810 -0.007799 -0.000000
v -0.058556 -0.007798 -0.058599
v 0.000000 3.134092 -0.050000
v 0.032957 3.121292 -0.035355
v 0.046608 3.115990 -0.000000
v 0.032957 3.121292 0.035355
v 0.000000 3.134092 0.050000
v -0.032957 3.146892 0.035355
v -0.046608 3.152194 0.000000
v -0.032957 3.146892 -0.035355
v 0.000000 3.134092 -0.050000
v 0.027059 3.111337 -0.035355
v 0.038267 3.101911 -0.000000
v 0.027059 3.111337 0.035355
v 0.000000 3.134092 0.050000
v -0.027059 3.156847 0.035355
v -0.038267 3.166273 0.000000
v -0.027059 3.156847 -0.035355
v 1.036446 4.366548 -0.029666
v 1.045984 4.346643 -0.020977
v 1.049935 4.338398 0.000000
v 1.045984 4.346643 0.020977
v 1.036446 4.366548 0.029666
v 1.026907 4.386453 0.020977
v 1.022956 4.394698 0.000000
v 1.026907 4.386453 -0.020977
vn -0.258100 -0.034200 -0.965500
vn 0.248000 0.032900 -0.968200
vn -0.000000 -0.000000 1.000000
vn 0.313100 -0.895100 0.317400
vn 0.167300 -0.977900 -0.125100
vn 0.167300 -0.978000 0.124600
vn -0.991300 -0.131500 0.000000
vn 0.241700 0.032100 0.969800
vn 0.991300 0.131500 0.000000
vn -0.249200 -0.033000 0.967900
vn 0.000000 0.000000 -1.000000
vn 0.249700 0.036600 -0.967600
vn -0.990100 -0.140300 0.000000
vn -0.239900 -0.035200 -0.970200
vn 0.042200 -0.960400 0.275500
vn 0.130000 -0.991500 0.000000
vn 0.314100 -0.893800 -0.320200
vn 0.233900 -0.972300 0.000000
vn 0.040300 -0.959500 -0.278800
vn -0.246200 -0.036100 0.968600
vn 0.258600 0.037900 0.965200
vn 0.990100 0.140300 0.000000
vn 0.108000 -0.994200 0.000000
vn 0.168600 -0.985700 0.000000
vn 0.290900 -0.956700 0.000000
vn 0.119000 0.992900 0.000000
vn 0.328500 -0.895500 -0.300400
vn -0.168600 0.985700 0.000000
vn 0.992100 0.125400 0.000000
vn 0.203700 0.025800 -0.978700
vn 0.211200 0.026700 0.977100
vn 0.028700 -0.964700 -0.261900
vn -0.992100 -0.125400 0.000000
vn -0.407300 0.913300 0.000000
vn -0.198000 -0.025000 -0.979900
vn -0.203300 -0.025700 0.978800
vn 0.030400 -0.965400 0.259200
vn 0.167300 -0.978000 -0.124900
vn 0.327500 -0.896600 0.298200
vn 0.167300 -0.978000 0.124800
vn 0.394100 0.000300 -0.919100
vn 0.928500 0.001600 -0.371400
vn 0.928500 0.001600 0.371400
vn 0.394100 0.000300 0.919100
vn -0.394000 0.000300 0.919100
vn -0.928400 0.001600 0.371600
vn -0.394000 0.000300 -0.919100
vn -0.928400 0.001600 -0.371600
vn 0.912500 0.156700 0.377800
vn -0.924000 0.000000 0.382400
vn -0.912500 0.156700 0.377800
vn 0.378100 0.156900 0.912400
vn -0.912500 0.156700 -0.377800
vn 0.912500 0.156700 -0.377800
vn -0.378100 0.156900 0.912400
vn -0.378100 0.156900 -0.912400
vn 0.378100 0.156900 -0.912400
vn -0.000000 -1.000000 0.000000
vn 0.382900 -0.000000 0.923800
vn 0.924000 -0.000000 -0.382400
vn -0.924000 0.000000 -0.382400
vn -0.382900 0.000000 0.923800
vn 0.924000 -0.000000 0.382400
vn 0.382900 -0.000000 -0.923800
vn -0.382900 0.000000 -0.923800
vn -0.796400 0.471800 -0.378300
vn 0.716800 -0.586700 -0.376900
vn -0.333100 0.197300 0.922000
vn -0.333100 0.197300 -0.922000
vn -0.796400 0.471800 0.378300
vn 0.901800 0.432100 -0.000000
vn -0.700600 0.605100 -0.378300
vn -0.287900 0.257500 0.922400
vn 0.716800 -0.586700 0.376900
vn 0.305600 -0.241600 -0.921000
vn -0.287900 0.257500 -0.922400
vn -0.700600 0.605100 0.378300
vn 0.305600 -0.241600 0.921000
usemtl Material
s off
f 21//1 19//1 27//1 29//1
f 17//2 23//2 31//2 25//2
f 18//3 20//3 28//3 26//3
f 25//4 31//4 40//4 34//4
f 26//5 28//5 35//5 33//5
f 27//6 25//6 34//6 36//6
f 22//7 21//7 29//7 30//7
f 24//8 18//8 26//8 32//8
f 23//9 24//9 32//9 31//9
f 20//10 22//10 30//10 28//10
f 19//11 17//11 25//11 27//11
f 35//12 38//12 46//12 43//12
f 40//13 39//13 47//13 48//13
f 39//14 33//14 41//14 47//14
f 29//15 27//15 36//15 37//15
f 30//16 29//16 37//16 38//16
f 32//17 26//17 33//17 39//17
f 31//18 32//18 39//18 40//18
f 28//19 30//19 38//19 35//19
f 36//3 34//3 42//3 44//3
f 33//11 35//11 43//11 41//11
f 34//20 40//20 48//20 42//20
f 37//21 36//21 44//21 45//21
f 38//22 37//22 45//22 46//22
usemtl Material.001
f 41//23 42//23 48//23 47//23
f 42//24 41//24 43//24 44//24
f 44//25 43//25 46//25 45//25
usemtl Material.002
f 13//18 15//18 24//18 23//18
f 4//11 8//11 7//11 3//11
f 8//26 6//26 10//26 12//26
f 6//3 2//3 1//3 5//3
f 15//27 3//27 18//27 24//27
f 6//28 8//28 4//28 2//28
f 12//29 10//29 9//29 11//29
f 7//30 8//30 12//30 11//30
f 6//31 5//31 9//31 10//31
f 7//32 11//32 22//32 20//32
f 14//33 16//33 15//33 13//33
f 2//34 4//34 16//34 14//34
f 4//35 3//35 15//35 16//35
f 1//36 2//36 14//36 13//36
f 9//37 5//37 19//37 21//37
f 3//38 7//38 20//38 18//38
f 11//16 9//16 21//16 22//16
f 1//39 13//39 23//39 17//39
f 5//40 1//40 17//40 19//40
usemtl Material.003
f 49//41 50//41 52//41 51//41
f 51//42 52//42 54//42 53//42
f 53//43 54//43 56//43 55//43
f 55//44 56//44 58//44 57//44
f 57//45 58//45 60//45 59//45
f 59//46 60//46 62//46 61//46
f 54//3 52//3 82//3 83//3
f 63//47 64//47 50//47 49//47
f 61//48 62//48 64//48 63//48
f 53//49 55//49 68//49 67//49
f 70//50 71//50 79//50 78//50
f 59//51 61//51 71//51 70//51
f 55//52 57//52 69//52 68//52
f 61//53 63//53 72//53 71//53
f 51//54 53//54 67//54 66//54
f 57//55 59//55 70//55 69//55
f 63//56 49//56 65//56 72//56
f 49//57 51//57 66//57 65//57
f 73//58 74//58 75//58 76//58 77//58 78//58 79//58 80//58
f 68//59 69//59 77//59 76//59
f 66//60 67//60 75//60 74//60
f 71//61 72//61 80//61 79//61
f 69//62 70//62 78//62 77//62
f 67//63 68//63 76//63 75//63
f 65//64 66//64 74//64 73//64
f 72//65 65//65 73//65 80//65
f 88//66 87//66 95//66 96//66
f 60//3 58//3 85//3 86//3
f 50//3 64//3 88//3 81//3
f 52//3 50//3 81//3 82//3
f 56//3 54//3 83//3 84//3
f 62//3 60//3 86//3 87//3
f 58//3 56//3 84//3 85//3
f 64//3 62//3 87//3 88//3
f 91//67 90//67 98//67 99//67
f 86//68 85//68 93//68 94//68
f 84//66 83//66 91//66 92//66
f 82//68 81//68 89//68 90//68
f 81//69 88//69 96//69 89//69
f 87//70 86//70 94//70 95//70
f 85//69 84//69 92//69 93//69
f 83//70 82//70 90//70 91//70
f 98//71 97//71 104//71 103//71 102//71 101//71 100//71 99//71
f 96//72 95//72 103//72 104//72
f 94//73 93//73 101//73 102//73
f 92//74 91//74 99//74 100//74
f 90//75 89//75 97//75 98//75
f 89//76 96//76 104//76 97//76
f 95//77 94//77 102//77 103//77
f 93//78 92//78 100//78 101//78
